<svg xmlns="http://www.w3.org/2000/svg" viewBox="0 0 651 530"><defs><style>.cls-1{fill:#fff;}.cls-2{fill:none;stroke:#fff;stroke-miterlimit:10;}</style></defs><title>constelation</title><g id="Layer_2" data-name="Layer 2"><g id="andromeda"><circle class="cls-1" cx="16" cy="104" r="16"/><circle class="cls-1" cx="136" cy="16" r="16"/><circle class="cls-1" cx="175" cy="279" r="16"/><circle class="cls-1" cx="408" cy="428" r="16"/><circle class="cls-1" cx="513.5" cy="98.5" r="10.5"/><circle class="cls-1" cx="230.5" cy="234.5" r="10.5"/><circle class="cls-1" cx="281.5" cy="387.5" r="10.5"/><circle class="cls-1" cx="281.5" cy="422.5" r="10.5"/><circle class="cls-1" cx="238.5" cy="508.5" r="10.5"/><circle class="cls-1" cx="191.5" cy="519.5" r="10.5"/><circle class="cls-1" cx="506.5" cy="136.5" r="7.5"/><circle class="cls-1" cx="514.5" cy="161.5" r="7.5"/><circle class="cls-1" cx="643.5" cy="161.5" r="7.5"/><circle class="cls-1" cx="220.5" cy="64.5" r="7.5"/><circle class="cls-1" cx="263.5" cy="191.5" r="7.5"/><circle class="cls-1" cx="296.5" cy="334.5" r="7.5"/><line class="cls-2" x1="30" y1="121" x2="159" y2="263"/><line class="cls-2" x1="189.5" y1="295.5" x2="271.5" y2="377.5"/><line class="cls-2" x1="224" y1="77" x2="262.5" y2="178.5"/><line class="cls-2" x1="154" y1="25" x2="212.5" y2="56.5"/><line class="cls-2" x1="258.5" y1="202.5" x2="242.5" y2="225.5"/><line class="cls-2" x1="220.5" y1="245.5" x2="191.5" y2="266.5"/><line class="cls-2" x1="510.5" y1="113.5" x2="507.5" y2="124.5"/><line class="cls-2" x1="527.5" y1="161.5" x2="630.5" y2="161.5"/><line class="cls-2" x1="508.5" y1="147.5" x2="510.5" y2="151.5"/><line class="cls-2" x1="504.5" y1="169.5" x2="309.5" y2="330.5"/><line class="cls-2" x1="285.5" y1="330.5" x2="196.5" y2="282.5"/><line class="cls-2" x1="296.5" y1="387.5" x2="385.5" y2="422.5"/><line class="cls-2" x1="281.5" y1="408" x2="281.5" y2="402.5"/><line class="cls-2" x1="274.5" y1="436.5" x2="247.5" y2="496.5"/><line class="cls-2" x1="223.5" y1="511.5" x2="206.5" y2="515.5"/></g></g></svg>